<svg width="400" height="200" xmlns="http://www.w3.org/2000/svg">
  <defs>
    <linearGradient id="grad3" x1="0%" y1="0%" x2="100%" y2="100%">
      <stop offset="0%" style="stop-color:#fa709a;stop-opacity:1" />
      <stop offset="100%" style="stop-color:#fee140;stop-opacity:1" />
    </linearGradient>
  </defs>
  <rect width="400" height="200" fill="url(#grad3)"/>
  <g transform="translate(200, 100)">
    <!-- Weather icons -->
    <circle cx="-40" cy="-30" r="15" fill="white" opacity="0.9"/>
    <path d="M -40,-45 L -37,-39 L -43,-39 Z M -40,-15 L -37,-21 L -43,-21 Z M -55,-30 L -49,-30 M -31,-30 L -25,-30 M -51,-41 L -47,-37 M -33,-23 L -29,-19 M -51,-19 L -47,-23 M -33,-37 L -29,-41" stroke="white" stroke-width="2" opacity="0.7"/>
    
    <!-- Cloud -->
    <ellipse cx="10" cy="-25" rx="18" ry="8" fill="white" opacity="0.9"/>
    <ellipse cx="0" cy="-25" rx="12" ry="6" fill="white" opacity="0.9"/>
    <ellipse cx="20" cy="-25" rx="10" ry="5" fill="white" opacity="0.9"/>
    
    <!-- Rain -->
    <line x1="5" y1="-15" x2="3" y2="-5" stroke="white" stroke-width="2" opacity="0.7"/>
    <line x1="12" y1="-15" x2="10" y2="-5" stroke="white" stroke-width="2" opacity="0.7"/>
    <line x1="18" y1="-15" x2="16" y2="-5" stroke="white" stroke-width="2" opacity="0.7"/>
    
    <!-- Chart representation -->
    <polyline points="-30,10 -15,5 0,15 15,0 30,8" stroke="white" stroke-width="3" fill="none" opacity="0.8"/>
    <circle cx="-30" cy="10" r="3" fill="white"/>
    <circle cx="-15" cy="5" r="3" fill="white"/>
    <circle cx="0" cy="15" r="3" fill="white"/>
    <circle cx="15" cy="0" r="3" fill="white"/>
    <circle cx="30" cy="8" r="3" fill="white"/>
    
    <text x="0" y="45" font-family="Arial, sans-serif" font-size="16" fill="white" text-anchor="middle" font-weight="bold">Weather Dashboard</text>
  </g>
</svg>